<?xml version="1.0" standalone="no"?>
<!DOCTYPE svg PUBLIC "-//W3C//DTD SVG 20010904//EN"
 "http://www.w3.org/TR/2001/REC-SVG-20010904/DTD/svg10.dtd">
<svg version="1.0" xmlns="http://www.w3.org/2000/svg"
 width="2048.000000pt" height="2048.000000pt" viewBox="0 0 2048.000000 2048.000000"
 preserveAspectRatio="xMidYMid meet">
<metadata>
Created by potrace 1.16, written by Peter Selinger 2001-2019
</metadata>
<g transform="translate(0.000000,2048.000000) scale(0.100000,-0.100000)"
fill="#000000" stroke="none">
<path d="M0 10240 l0 -10240 10240 0 10240 0 0 10240 0 10240 -10240 0 -10240
0 0 -10240z m18475 4610 c60 -6 113 -14 118 -19 4 -4 -61 -33 -145 -64 -141
-51 -299 -112 -438 -167 -30 -12 -148 -62 -263 -111 -200 -86 -258 -113 -542
-249 -71 -34 -139 -66 -150 -71 -11 -5 -69 -35 -130 -67 -60 -32 -159 -84
-220 -116 -60 -32 -128 -68 -150 -81 -160 -91 -373 -212 -390 -222 -11 -7 -26
-15 -34 -19 -8 -4 -85 -50 -170 -102 -86 -53 -165 -100 -176 -106 -11 -6 -31
-19 -45 -28 -14 -8 -128 -83 -255 -165 -235 -151 -344 -224 -488 -325 -45 -31
-102 -71 -127 -88 -40 -28 -264 -187 -315 -224 -11 -8 -103 -77 -205 -153
-158 -118 -229 -172 -310 -236 -8 -7 -56 -43 -105 -82 -50 -38 -138 -108 -196
-155 -58 -47 -117 -94 -131 -105 -101 -80 -554 -458 -653 -546 -16 -15 -73
-64 -125 -109 -125 -109 -221 -193 -234 -205 -6 -5 -51 -46 -100 -90 -50 -44
-97 -87 -106 -95 -9 -8 -61 -55 -116 -105 -54 -49 -132 -122 -174 -161 -41
-39 -154 -144 -250 -234 -317 -297 -1141 -1113 -1525 -1511 -168 -174 -495
-515 -545 -569 -18 -19 -69 -73 -114 -120 -72 -77 -242 -257 -456 -485 -41
-44 -77 -82 -80 -85 -131 -138 -201 -213 -320 -339 -271 -289 -580 -609 -795
-824 -164 -163 -449 -435 -510 -487 -17 -14 -59 -50 -95 -81 -102 -88 -267
-211 -360 -269 -215 -135 -367 -167 -490 -105 -57 29 -162 138 -229 237 -103
154 -253 443 -371 713 -28 66 -60 138 -70 160 -10 22 -43 103 -74 180 -32 77
-65 158 -75 180 -10 22 -28 69 -41 105 -13 36 -26 70 -30 75 -4 6 -20 44 -35
85 -15 41 -36 93 -45 115 -10 22 -32 78 -50 125 -76 201 -101 266 -110 285 -6
11 -60 151 -120 310 -61 160 -124 322 -139 360 -16 39 -34 88 -41 110 -7 22
-16 45 -20 50 -4 6 -20 44 -35 85 -15 41 -33 89 -41 105 -7 17 -45 111 -84
210 -39 99 -75 189 -80 200 -5 11 -23 56 -40 100 -17 44 -37 94 -45 110 -13
30 -86 207 -127 310 -11 28 -23 55 -28 60 -4 6 -13 28 -20 50 -7 22 -18 51
-26 65 -7 14 -52 115 -99 225 -102 235 -156 355 -236 524 -33 67 -59 125 -59
128 0 7 -228 463 -293 585 -30 57 -77 146 -105 198 -58 111 -290 530 -301 545
-5 6 -22 35 -38 65 -42 76 -315 530 -403 670 -40 63 -78 124 -84 134 -6 11
-15 25 -19 30 -5 6 -31 47 -59 91 -73 113 -335 506 -436 655 -108 157 -445
624 -462 640 -3 3 -27 34 -53 69 -29 40 -44 68 -38 74 16 16 277 1 384 -22
262 -57 599 -196 912 -376 55 -32 109 -63 120 -69 89 -51 350 -227 495 -335
139 -103 327 -249 356 -276 6 -5 30 -26 54 -45 288 -230 808 -723 1161 -1100
166 -176 187 -200 229 -246 19 -21 59 -66 90 -99 71 -78 132 -146 200 -225 30
-35 60 -68 65 -74 6 -6 35 -40 65 -76 30 -35 60 -70 67 -78 7 -7 29 -34 50
-60 21 -26 40 -49 43 -52 6 -6 165 -197 266 -320 109 -133 170 -211 333 -420
83 -107 164 -211 180 -230 38 -47 403 -535 474 -635 95 -132 81 -121 119 -94
18 13 35 26 38 30 3 3 39 34 80 68 41 34 84 70 95 79 11 10 29 24 41 32 11 8
41 32 65 52 65 54 270 219 309 248 31 23 66 51 115 92 11 9 67 53 125 98 58
44 114 88 125 97 20 17 768 577 815 610 22 16 266 192 315 227 188 136 989
683 1022 697 4 2 49 31 98 63 72 48 473 299 700 439 238 147 733 430 1035 593
316 170 825 427 1020 517 30 14 114 52 185 85 72 33 166 75 210 95 44 19 103
45 130 57 109 48 366 154 475 197 63 24 149 58 190 75 41 17 98 38 125 48 28
9 115 41 195 69 635 229 1247 398 1830 505 293 54 588 94 850 115 154 12 598
13 725 1z"/>
</g>
</svg>
